<svg xmlns="http://www.w3.org/2000/svg" version="1" viewBox="0 100 2436 1861" style="background:yellow;">
  <g transform="translate(889 90)">
    <path fill="#f95" stroke="#000" d="M214 758a308 308 0 0 1-96-113c-9-12-24-148-22-209l2-55 18-36c10-20 21-41 26-46 5-6 25-15 47-23 39-12 40-13 134-13h95l37 22c62 37 90 77 103 147 7 34 7 40 1 77l-11 72c-3 26-7 37-21 62l-27 40c-12 14-110 64-134 69-23 4-140 9-152 6z"/>
   
   
    <ellipse cx="242" cy="448" rx="13" ry="15"/>
    <path fill="#fff" d="M243 454c-1-4 0-6 2-9l-11-6-2 10 11 5z"/>
    <path stroke="#000" d="M96 618c-3-9-4-18-5-27l-2-28a376 376 0 0 1-1-53v-93c-1-8 0-16 3-24l7-23 11-24c4-8 10-14 15-20 7-9 15-16 23-22 11-9 23-15 36-19 8-3 16-3 24-5l29-4 28-3 22-1a265 265 0 0 1 53-2h83c9-1 18 2 27 6 8 3 17 7 25 12l23 14 20 15 20 19c6 6 10 14 13 22 1 8 4 15 8 22l8 22 7 20c3 6 3 14 4 21 2 7 2 15 3 22v22l-3 22-5 22c-2 6-3 13-3 20s-2 13-4 20l-6 19-3 22c-1 7-5 14-8 20l-14 23-14 20c-5 8-9 13-16 18l-23 14 8-5-19 10c-9 3-17 8-25 12s-17 6-24 11l-24 10-23 8c-9 4-18 4-28 6-9 2-19 1-28 3l-26 2c-9 0-19 3-28 4a169 169 0 0 1-48 0c-11-2-20-7-29-12a315 315 0 0 1-41-38l-16-19c-4-6-9-12-12-19-5-7-9-15-12-23-4-7-5-16-8-23-4-8-6-16-7-25v-3l13-7-1 4c1 8 3 16 7 24 3 8 4 16 8 24 3 8 8 15 12 22 3 7 8 13 12 18l16 19a305 305 0 0 0 40 38c9 5 18 10 29 12l26 2 22-2c10-1 19-4 28-4l26-3 29-3c9-1 18-2 27-5l23-9 24-10 23-10c9-4 17-9 26-12l3-2-8 5 16-9a223 223 0 0 1-1 0l7-5c4-3 6-8 9-13l14-19 14-23c3-7 7-13 8-20l3-22 6-19c2-7 5-13 4-20l4-20 4-22 3-22v-21l-2-23c-1-7-1-14-4-20l-7-20c-3-8-5-15-9-22l-8-23c-2-8-6-15-12-21-6-7-13-13-20-18-6-5-12-11-19-15l-24-15c-8-5-16-8-25-12-9-3-17-6-26-5h-83l-29 1-24 1-23 2-27 2-29 5c-8 1-16 1-24 4l-8 3-4 2c18-13 4-1 0 1-8 6-16 13-23 21l-15 20-11 24-8 23c-2 8-4 16-3 24v118l1 27 2 29c1 9 2 18 5 26l-12 7z"/>
    <path stroke="#000" d="M77 493c-10-2-21-2-32-2l-22 3c-9 1-17 6-25 10-10 3-20 7-29 13l7-4-4 2-12 12-9 21c-2 8-2 16-2 24 0 10 4 19 9 27s8 16 11 25c2 7 1 14 5 20l1 2 5 2 12 4c7 3 15 5 23 6 9 2 19 2 28 3 9 0 19 2 28 1h3l3-2-10 6 1-2 1-5c-2-6-8-11-12-16-6-6-11-12-13-19l-7-25a104 104 0 0 1 2-62c3-9 8-16 13-23 8-9 19-15 31-16l13-1-12 8-12 1-7 1-3 2c18-13 6-4 3-1-6 7-11 14-13 23a134 134 0 0 0-6 40c0 7 1 15 3 22l7 24c2 7 7 13 12 19 5 5 11 10 13 17 2 11-11 16-21 18l-28-2-29-3-23-6c-6-3-14-4-18-9-4-6-4-14-5-21-3-8-6-17-11-24-5-9-10-17-10-28l2-24c2-8 5-15 9-21 8-12 21-18 33-25l29-13c8-4 16-8 25-9a177 177 0 0 1 55-1l-12 8zm508 1l47-2h60c13 0 23 4 32 13 5 7 9 15 11 23 2 7 2 15 2 22 1 7 0 14-1 22 0 8-3 16-6 23-4 10-10 19-15 29-4 10-9 20-18 28-10 10-24 15-37 22l-4 2-4 2-5 2c17-9 4-1 1 1-5 5-15 15-22 13-2 0-3-1-4-3-4-5-5-12-6-18v-89c-1-8-5-14-10-20-4-8-11-14-17-21-5-6-11-9-18-12l-4-1 12-8 3 1c8 3 14 7 19 13 6 7 13 13 17 21 5 6 9 12 10 20l1 22v67c0 7 1 13 5 18l3 2h2c-19 13-7 4-4 1 11-10 24-15 36-22l8-4 5-2-8 5 9-6c8-8 14-18 18-29l14-28c4-8 6-15 6-23l2-21-2-22c-3-8-6-16-11-23-9-9-18-12-31-12h-60l-47 2 11-8z"/>
    <path stroke="#000" d="M568 494v-47c-1-9 1-18 3-26l3-23c2-7 2-15 2-22 1-6-1-13-2-19l-2-20-3-21-1-22v-23l-3-23-6-25c-2-8-5-17-9-24-5-7-8-15-12-22-4-8-10-14-16-19l-22-17-20-14a218 218 0 0 0-38-20l-28-8c-12-4-24-6-36-8l-30-6c-7-3-14-4-21-5l-23-2-23-1c-9-1-18 1-27 4l2-1c-42 25-12 7-9 5l-4 3-4 3-23 18-25 16-23 17-20 16c-7 7-13 15-17 24l-5 22c-3 9-7 16-11 24-3 8-8 16-12 23-4 6-6 14-7 21l-6 20c-3 6-5 12-6 19l-5 25-4 25-3 21-1 22 1 21 4 22 2 21 9 18 8 11-12 8-8-12c-4-6-8-12-9-19l-3-21-3-22-1-21v-21c1-8 1-15 4-22l4-25c2-8 4-16 4-25 2-7 3-13 6-19 3-7 5-13 6-20 1-8 4-15 7-21 4-8 9-15 12-23 4-8 9-16 11-24l6-22c4-9 9-17 16-25l20-16 23-17 25-16 23-18 24-15-7 4 22-12c9-3 18-5 27-4l23 1 24 2 20 5 30 6c12 2 25 4 37 8l27 8a219 219 0 0 1 39 20l20 15 22 16c6 6 12 12 16 20 4 7 7 15 12 22l10 24 6 25 2 24a1551 1551 0 0 0 2 44l2 22 3 19 2 20-2 22-4 23c-2 8-4 17-3 26v47l-12 6z"/>
    <path stroke="#000" d="M81 466c-6-29-8-50-8-65a577 577 0 0 1 38-161c7-13 16-34 19-45 7-25 19-38 59-65a2138 2138 0 0 0 67-47c8-4 55-4 75 0l46 10c66 13 86 22 130 55 18 14 24 21 34 39 20 36 20 37 31 173 2 23-1 60-4 60l-9-18c-12-33-17-41-35-57-22-19-57-40-78-48-14-5-24-5-73-5-92 0-177 8-204 21-17 7-44 31-56 49-15 21-26 56-28 87-2 21-3 25-4 17zm552 211c-2-3-3-27-3-54 0-46 0-51-6-60-10-17-25-34-34-39-7-3-8-6-8-12v-9l42-1c76-1 81 0 92 22 7 14 8 51 2 70-8 21-29 58-35 62l-26 15c-20 11-21 11-24 6zM26 657c-10-1-25-4-34-7-15-5-16-6-19-15l-3-13-10-24c-10-19-11-23-9-37 1-8 5-21 8-27 6-11 10-14 32-25 28-13 52-18 72-15l11 2-9 5c-13 7-25 25-29 42-8 32 2 85 19 100l10 12c2 5 1 5-10 5l-29-3z"/>
    <path fill="#4d9ed6" fill-rule="evenodd" stroke="#000" d="M-267 339c-13-3-38-12-51-18l-11-6h16c25 0 54-10 71-23l6-4-13-4c-16-3-30-13-38-25-10-15-10-15 5-15l14-2c0-1 0-2-2-2-13 0-39-23-45-40-5-16-4-21 5-17l12 3 10 2-10-10c-5-5-11-14-14-19-5-11-7-30-4-41 4-16 5-16 21-1 29 28 64 45 104 50l13 1v-13c0-19 5-34 18-46 23-23 59-25 84-5l8 6 15-5 18-7h4c0 3-13 20-20 25-6 5-6 6-2 6l16-3c6-2 11-3 12-2l-14 15-14 14v14c0 24-7 51-21 78-24 48-69 82-121 93-17 3-57 4-72 1zm1036 23c-7-2-21-6-28-10l-7-3h9c14 0 31-5 40-11l3-3-7-1c-9-2-17-7-21-13-6-8-6-8 2-8l8-1c1-1 0-1-1-1-7 0-21-12-25-21-3-8-2-11 3-9l7 2 5 1-5-5c-3-3-7-7-8-10-3-6-4-16-2-21 2-8 2-8 11-1 17 15 36 24 59 26l7 1v-7c0-10 3-18 10-24 13-12 33-13 47-2l5 3 8-3a121 121 0 0 0 13-4c0 2-8 11-12 13-3 3-3 3-1 3l9-1 7-1-8 8-8 7v7c0 12-4 26-12 40a98 98 0 0 1-68 48c-9 2-31 2-40 1zm100 296l-19-6-4-2h6c9 0 21-4 27-8l2-2-5-1c-6-1-11-5-14-9-4-5-4-5 1-5l6-1-1-1c-5 0-15-8-17-14s-1-8 2-6l5 1 3 1-3-4-6-7c-2-3-3-10-1-14 1-6 1-6 7 0 12 10 25 16 41 17l5 1v-5c0-7 2-12 7-16 8-8 22-9 32-2l3 2 6-2a83 83 0 0 0 9-2l-8 9c-3 2-3 2-1 2l6-1 5-1-5 5-6 5v5c0 9-3 18-8 28-9 17-27 29-47 33h-28zm-1260-50l-12-4-3-2h4c6 0 13-2 17-5l1-1h-3c-3-1-7-3-9-6s-2-3 1-3l4-1h-1c-3 0-9-5-10-9-1-3-1-4 1-3h3l2 1-2-2c-1-2-3-3-3-5-2-2-2-6-1-9s1-3 4 0c7 6 16 10 25 11h3v-3c0-4 2-7 5-10 5-4 14-5 20-1l1 2 4-1a51 51 0 0 0 5-2l-5 6v1l4-1h3l-4 3-3 3v3c0 5-2 11-5 17-6 10-16 18-29 20l-17 1zM209-2l-19-6-4-2h6c9 0 21-4 27-8l2-2-5-1c-6-1-11-5-14-9-4-5-4-5 1-5l6-1-1-1c-5 0-15-8-17-14s-1-8 2-6l5 1 3 1-3-4-6-7c-2-3-3-10-1-14 1-6 1-6 7 0 12 10 25 16 41 17l5 1v-5c0-7 2-12 7-16 8-8 22-9 32-2l3 2 6-2a83 83 0 0 0 9-2l-8 9c-3 2-3 2-1 2l6-1 5-1-5 5-6 5v5c0 9-3 18-8 28-9 17-27 29-47 33h-28z" clip-rule="evenodd" image-rendering="optimizeQuality" shape-rendering="geometricPrecision" text-rendering="geometricPrecision"/>
    <ellipse cx="395" cy="450" rx="13" ry="15"/>
    <path fill="#fff" d="M406 451c0-4 0-6 2-9l-10-5c-2 2-3 5-3 9l11 5z"/>
    <path fill="#4d9ed6" fill-rule="evenodd" stroke="#000" d="M-827 459c-13-3-38-12-51-18l-11-6h16c25 0 54-10 71-23l6-4-13-4c-16-3-30-13-38-25-10-15-10-15 5-15l14-2c0-1 0-2-2-2-13 0-39-23-45-40-5-16-4-21 5-17l12 3 10 2-10-10c-5-5-11-14-14-19-5-11-7-30-4-41 4-16 5-16 21-1 29 28 64 45 104 50l13 1v-13c0-19 5-34 18-46 23-23 59-25 84-5l8 6 15-5 18-7h4c0 3-13 20-20 25-6 5-6 6-2 6l16-3c6-2 11-3 12-2l-14 15-14 14v14c0 24-7 51-21 78-24 48-69 82-121 93-17 3-57 4-72 1zm1996-257c-7-2-21-6-28-10l-7-3h9c14 0 31-5 40-11l3-3-7-1c-9-2-17-7-21-13-6-8-6-8 2-8l8-1c1-1 0-1-1-1-7 0-21-12-25-21-3-8-2-11 3-9l7 2 5 1-5-5c-3-3-7-7-8-10-3-6-4-16-2-21 2-8 2-8 11-1 17 15 36 24 59 26l7 1v-7c0-10 3-18 10-24 13-12 33-13 47-2l5 3 8-3a121 121 0 0 0 13-4c0 2-8 11-12 13-3 3-3 3-1 3l9-1 7-1-8 8-8 7v7c0 12-4 26-12 40a98 98 0 0 1-68 48c-9 2-31 2-40 1zm-1880-74l-12-4-3-2h4c6 0 13-2 17-5l1-1h-3c-3-1-7-3-9-6s-2-3 1-3l4-1h-1c-3 0-9-5-10-9-1-3-1-4 1-3h3l2 1-2-2c-1-2-3-3-3-5-2-2-2-6-1-9s1-3 4 0c7 6 16 10 25 11h3v-3c0-4 2-7 5-10 5-4 14-5 20-1l1 2 4-1a51 51 0 0 0 5-2l-5 6v1l4-1h3l-4 3-3 3v3c0 5-2 11-5 17-6 10-16 18-29 20l-17 1zm-40 520l-12-4-3-2h4c6 0 13-2 17-5l1-1h-3c-3-1-7-3-9-6s-2-3 1-3l4-1h-1c-3 0-9-5-10-9-1-3-1-4 1-3h3l2 1-2-2c-1-2-3-3-3-5-2-2-2-6-1-9s1-3 4 0c7 6 16 10 25 11h3v-3c0-4 2-7 5-10 5-4 14-5 20-1l1 2 4-1a51 51 0 0 0 5-2l-5 6v1l4-1h3l-4 3-3 3v3c0 5-2 11-5 17-6 10-16 18-29 20l-17 1zM769 48l-12-4-3-2h4c6 0 13-2 17-5l1-1h-3c-3-1-7-3-9-6s-2-3 1-3l4-1h-1c-3 0-9-5-10-9-1-3-1-4 1-3h3l2 1-2-2c-1-2-3-3-3-5-2-2-2-6-1-9s1-3 4 0c7 6 16 10 25 11h3V7c0-4 2-7 5-10 5-4 14-5 20-1l1 2 4-1a51 51 0 0 0 5-2l-5 6v1l4-1h3l-4 3-3 3v3c0 5-2 11-5 17-6 10-16 18-29 20l-17 1zm720-40l-12-4-3-2h4c6 0 13-2 17-5l1-1h-3c-3-1-7-3-9-6s-2-3 1-3l4-1h-1c-3 0-9-5-10-9-1-3-1-4 1-3h3l2 1-2-2c-1-2-3-3-3-5-2-2-2-6-1-9s1-3 4 0c7 6 16 10 25 11h3v-3c0-4 2-7 5-10 5-4 14-5 20-1l1 2 4-1a51 51 0 0 0 5-2l-5 6v1l4-1h3l-4 3-3 3v3c0 5-2 11-5 17-6 10-16 18-29 20l-17 1zm-400 560l-12-4-3-2h4c6 0 13-2 17-5l1-1h-3c-3-1-7-3-9-6s-2-3 1-3l4-1h-1c-3 0-9-5-10-9-1-3-1-4 1-3h3l2 1-2-2c-1-2-3-3-3-5-2-2-2-6-1-9s1-3 4 0c7 6 16 10 25 11h3v-3c0-4 2-7 5-10 5-4 14-5 20-1l1 2 4-1a51 51 0 0 0 5-2l-5 6v1l4-1h3l-4 3-3 3v3c0 5-2 11-5 17-6 10-16 18-29 20l-17 1zm360-120l-12-4-3-2h4c6 0 13-2 17-5l1-1h-3c-3-1-7-3-9-6s-2-3 1-3l4-1h-1c-3 0-9-5-10-9-1-3-1-4 1-3h3l2 1-2-2c-1-2-3-3-3-5-2-2-2-6-1-9s1-3 4 0c7 6 16 10 25 11h3v-3c0-4 2-7 5-10 5-4 14-5 20-1l1 2 4-1a51 51 0 0 0 5-2l-5 6v1l4-1h3l-4 3-3 3v3c0 5-2 11-5 17-6 10-16 18-29 20l-17 1z" clip-rule="evenodd" image-rendering="optimizeQuality" shape-rendering="geometricPrecision" text-rendering="geometricPrecision"/>
   
  </g>
  <g stroke="#000">
    <path d="M1036 1285l-2-46-1-3v-3c29-14 33-23 28-13-2 4-2 9-2 14v15l-1 6-30 14 2-6 1-15 1-15c28-51 30-21 30-8-1 15 0 30 2 45l-28 15zm321-50l15 7 10 10c3 5 4 9 5 14l6 14 7 9 9 7 11 5 12 3 9 2-26 19-10-3-11-3-12-6-10-7-7-10-6-15-5-13c-2-4-5-6-9-9l-15-6 27-18z" transform="matrix(.80047 0 0 .612 240 -102)"/>
    <path d="M1031 1284c1 7 4 12 6 18l16 37c6 12 16 23 27 32 7 6 13 13 18 22l11 20 7 8c9 8 20 11 31 14l29 5c8 1 17-2 26-3l41-9 10-5 4-2c-41 24-25 15-16 8 16-14 35-23 53-34l33-15-16 9 3-2 5-4 13-20 9-19c5-8 12-13 19-19l13-13 4-5 30-14v1l-4 6-14 13c-7 6-13 11-18 18-4 6-8 13-10 19l-13 21c-12 13-30 19-45 28l-33 15c44-25 8-6 0 3-15 13-33 23-52 29-13 4-27 6-41 9-9 2-18 5-27 3-10-1-19-4-28-6-12-3-24-7-33-15-7-9-13-19-18-29-5-8-11-14-17-21-11-10-20-21-27-34a369 369 0 0 1-24-53l28-16z" transform="matrix(.80047 0 0 .612 240 -102)"/>
    <path d="M968 1336c3-5 8-9 13-13 8-6 16-13 22-21s12-17 16-26l10-19 6-10 4-11v-2l30-13-1 2c-1 3-4 7-4 10l-5 11-11 20-7 13-10 13-11 13-7 6-2 2c-5 4-10 7-14 12l-29 13z" transform="matrix(.80047 0 0 .612 240 -102)"/>
    <path d="M1061 1272l1 23c1 5 4 8 7 11l10 9-28 17-9-9c-4-4-7-7-8-13l-1-23 28-15z" transform="matrix(.80047 0 0 .612 240 -102)"/>
    <path d="M1069 1277c2 5 5 9 9 13 6 5 13 7 20 9l19 6 17 5 13 5 17 2 27 2 19 2h39c8 0 16 0 24-2 6-2 12-2 18-2 5 0 9-3 13-4l-14 8 7-4 4-3c7-5 12-11 18-17l15-21 6-10 29-13-7 10c-5 7-9 15-15 22l-16 17c-18 12-66 39-10 6l-1 1c-14 8-27 17-42 24-4 1-8 3-12 2l-19 3-23 2h-28l-12-1-19-2-27-2-17-2-13-5-17-6-19-5c-7-3-15-5-21-10l-10-14 28-16z" transform="matrix(.80047 0 0 .612 240 -102)"/>
    <path fill="#fff" d="M1150 1433c-29-7-34-11-50-39-5-9-13-20-18-23-8-7-29-32-29-36l11-9 12-7 23 8c37 12 110 18 154 12 24-4 27-5 51-18 18-11 30-19 39-29l13-13c1 0 3 4 4 9l8 15 4 7-16 16c-11 11-19 23-24 32l-11 20-31 18-39 23c-8 6-17 9-36 13-30 7-43 7-65 1z" transform="matrix(.80047 0 0 .612 240 -102)"/>
    <path fill="#fff" d="M1151 1432c-26-6-35-13-50-39-4-7-14-19-22-29-19-20-25-29-22-31l11-7 8-5 14 5c34 12 57 15 115 15 46 0 58-1 68-4 18-6 51-26 69-42 9-8 14-12 15-10l7 14 6 11-13 13c-12 12-25 30-35 49-2 4-11 11-27 19l-41 24c-29 18-73 25-103 17z" transform="matrix(.80047 0 0 .612 240 -102)"/>
    <path d="M1465 1312l1 2 1 4 1 2v10l-2 1v-5l1-2 1-2 1-4 1-2 3-2-1 2-1 2-1 2-1 2-2 1v-1a242 242 0 0 1 0-6l2-1v4l-2 1v-4l2-1v7l-1 1v-2l1-2 2-2v-2l2-1-1 1-1 2-1 4-1 2-1 2v2l-1 2 1 1-2 1a85 85 0 0 0 0-7v-5a10 10 0 0 0-3-6l2-1zm18 3l1 2 2 3 1 4 1 2v3c0 2 0 1-2 2l1-2 1-1 1-2 1-3 1-3v-1l1-1 2-1v1l-2 3-1 4-1 2h-4v-8l1-1 2-1v4l1 4-2 1v-1l1-3 1-4v-1h2v1l-1 2-1 3-1 1c-1 1-4 3 0 1h-1l-2 1v-1l1-3v-4l2-1v1l-1 3h-2l1-2v-1l2-1-1 4v4c-4 2 0-1 1-1l-2 1 1-1 2-3v-3l2-2v1l-1 4-1 3v1l-2 1v-4l-1-4 1-1c1 0 0 0 0 0v9l1 1-1 1 1-2 1-4 2-3 1-1 1-1-1 1v1l-1 3-1 3-1 2-1 1-1 2h-2a39 39 0 0 0 0-3l-1-2-1-4-1-3-2-2 2-1zm24 2l1 3 1 4v2l-1 1-1 2-1 1c-1 0 0 0 0 0l1-3 2-2 1-4v-2l1-1c2-2 2-1 2 1l-1 3-1 3-2 1v-1a51 51 0 0 1 0-7l2-1v2l-1 4-1 2-2 1v-5l1-2 1-1v2a37 37 0 0 0 0 4v1l-2 1 1-2 1-4v-2l2-1a35 35 0 0 0 0 7v1c-3 2-2 1-2 0l1-2 1-3v-2l2-1-1 1-1 3v3l-2 3-1 2-2 1v-2l1-1v-2l-1-4-1-3 2-1zm-48-2h-1s-1 0 0 0c2-1 0 0 0 0l-2 4-1 4v2l-1 2c-1 2-2 2-2 0v-2l1-4a96 96 0 0 0 0-7c2-4 2 0 2 0v7l-1 2c0 1 1 1-2 1v-8l-1-1 2-1v10l-1 1v-3l-1-3v-4l2-1 1 1v8l-2 1h1v-9c0-2 0-1 2-2v2l-1 5v4l-1 2c1 1 1 1-1 2l1-2v-3l1-3 2-4 4-3-1 2zm-23-3l4 2 1 6v5c1 1-1 3-1 1v-3l1-4v-3l1-1 4-2s0-1 0 0l-2 1h1l-2 2v3l-2 2-1-1v-1l-1-3v-1l1-1 2-1-1 1v4l1 1-1 1v-3l1-2 1-1 2-1h1l-2 1c1 0 0 0 0 0l1-1-1 1-1 1v3l-1 4-1 3c0 2-2 3-1 1v-2l-1-3-1-6-3-2 1-1zm-8-3l1 4a25 25 0 0 1 0 7v2l-2 1v-1l1-3 1-3a79 79 0 0 1 1-5l2-1 2-1v-1l-1 2-2 1h-1l1-1v2l-1 2-2 2v-3l2-1-1 3-1 1v-1l1-2v-2l3-2h2l-1 1c-1 0-3 1 0-1l-1 2-1 1a122 122 0 0 0-2 9v1l-2 1v-2l1-3-1-5-1-3 2-1zm-13-3l1 4 1 4v2l-1 1c-1 0 0 0 0 0l1-3 1-4 1-3c1 1-2 1 2-1l-1 1-3 4-2 3v1h-2v-1l3-9c1-1 2-3 4-3v1l-1 7-1 3v1l-2 1v-8l2-1v7c-1 2-2 3-3 2l-1-1-1-2-1-3 2-1 1 3v2l2 1-2 1h1v-8l2-1v8l-2 1v-1l1-3 1-7c0-2 0-1 2-2h-1l-1 2-4 10-1 1 2-3 3-4 3-2-1 4-1 3-1 2-1 1-2 1v-6l-2-4 2-1zm119 5l1 2v6l1 3v3l-2 1v-10l1-3 2-1v5c0 2 0 2-2 3v-5l2-1v5c-3 1-2 1-2-1v-3l1-2c-1-1 2-2 1-1l-1 3v10l-2 1v-6l-1-6-1-2 2-1zm13-6v11l-2 1v-4l1-3 1-2 1-3 1-2c2-3 2-1 2 0l-1 2v1l-2 1v-2l1-1c0-2 0-1 2-2l-1 2-1 3-1 3-1 2v4l-2 1 1-2v-6l-1-3 2-1zm13-9l1 2 1 4v3h-2l1-5c0-2 2-3 3-5l2-2 2-2-3 2h-3l-1 1s-1 0 0 0c2-2 1-1 0-1l-1 2 1 2-2 1 3-3 4-4 2-1c0-1 0 0 0 0v1l-1 2-2 2-1 1h-2l2-2h1l-2 1 1-1-1 1 1-1 2-1-2 3h-2 1l2-2 1-2v-1l2-1-4 4-3 3-2 1v-4l4-2 4-1h2v-1h1l-2 2-2 2c-2 2-3 3-3 5l-1 5-2 2v-7l-2-2 2-1zm-114 75l3-2 3-3 2-5 1-1c2-2 2 0 1 1l-1 6v5l-4 2-1 1-1-1 1-1 2-4 2-4c0-1 1-3 2-2v1l-5 8-3 2v-1l3-5 3-3-1 4v4l-2 1h1l1-5 2-1h-1l-1 5-2 2v-5l1-4c4-2 2-1 2 0l-1 1-3 5v1h-1l-1 1 1-1 5-8c1-2 0-2 2-3v2l-2 4-2 4-1 1h2v-1l1-4 1-6c0-2-1-1 2-2l-1 1a124 124 0 0 1-6 8l-2 1-2 1zm19 5l2-4 1-4 1-2v-4a20 20 0 0 0 0-4l2-1v5l1 2v2l1 3v8l-2 1-1-2a33 33 0 0 1 0-6v-2h2l-1 1v2l-1 5-1 2-2 1v-3l1-5v-2l2-1v6l-1 1-1 1v-7l2-1v2l-1 5v3l-2 1v-1h1v-1l1-5s1-7 3-4v8l1 1-2 1v-2a171 171 0 0 0 0-6l-1-3v-2l-1-3v-4c3-2 2-2 2 1v6l-1 3-1 3-2 4-2 1zm22-1v-9a93 93 0 0 0 0-6c2-4 3 1 3 1v3l2 3 1 3 2 2v1h1l-2 1h-2l-2-1v-1l-1-3v-5l1-1v10c-3 1-2 1-2-1h2v1l-2 1c0-2-1-1 2-2l-2 2v-7l1-3c2-1 2-2 2 0v7l1 1 2 1h2l-2 1-1-1-1-2-2-3-2-3v-4l1-1v14l-2 1zm19-1l1-6 2-4v-5l-2-5-1-3 2-1 1 2 2 5 2 3 2 2 1 1-1 1-4 4-5 4v-2c0-3 1-6 3-8 0-2 1-3 3-4v3l-1 3v5l-1 1v-1l1-2 1-4h3l1 2v1l-2 1v-1l-1-2v-1c2-2 1-1 1 0l-1 3-1 2v1l-2 1v-8l1-3h1c0-1 0 0 0 0l-2 2-2 8v1l-1 1c-1 0 0 0 0 0l2-2 4-4 1-1-1-1-1-2-2-3-3-5-1-2 2-1 1 3 1 5 1 1v1l-1 3-1 4-1 6-2 1zm-70-21s2-1 0 0l1-1c1-1 4-2 0 0h1v-1l2-2 2-3 4-2a522 522 0 0 1-7 16v2l-3 1v-6l1-2 1-1 1-1-4 3 1-2 1-1 2-2 2-3 2-1v1l-2 4-2 4-1 2-1 2-1 1-2 1v-1l1-4 1-1 4-2-2 1h-1 1l-1 2-1 4-2 1v-1h1l1-2 1-3 2-4 2-2v-2l2-1c0-1 0 0 0 0l-2 4-2 1-1 2-1 1c-4 2-2 1-1 1l1-2c1-1 4-2 2 0l-1 2v6l-2 1h1v-3l2-3 3-5 2-7 2-1h-1l-1 2-2 3-2 1-1 1c0 1-4 3 0 0v1l-5 2 2-1z" transform="matrix(1.42583 0 0 1 -919 -600)"/>
    <path d="M1440 1355h-1l2-1-1 1zm-16-17a38 38 0 0 0 5-2l1-1 4-3 1 2-2 7-3 3-2 1v1c-2 0 2-2 0-1v1l-4 2v-1c-1-1 0-2 1-2l5-3a23 23 0 0 0 2-1h-1l1-2v-2l-1-2h1l-6 9-2 2-2 1 1-3a367 367 0 0 0 10-12l2-1v6l-2 2-5 3h-2l2-1 1-1h1l-2 1 2-1v1l-2 1v-1l2-1-2 2c-1 0-3 1 0-1l2-1 2-1h1l-2 1 2-3 1-3v-2h-1l1-1v1l-5 6-3 4-2 3-1 1-1 1 2-2 6-9 3-2 1 2v2l-1 3-5 2-1 1h-1 1l-2 2c1 1 1 1-1 2a593 593 0 0 1 6-4l-1 1c1-1 2-1 2-3l2-7v-1h-1l2-1h-1l-1 1-5 3-4 2 1-1zm117 13v-6l-1-5-1-2h3l2 2 1 3 1 2h1l-2 2v-1l-2-2a10 10 0 0 0-3-5l-1-1 1-1 2 2 1 5v6l-2 1z" transform="matrix(1.42583 0 0 1 -919 -600)"/>
    <path d="M1546 1348l-1-2-1-1 2-1v1l2 2-2 1zm-20 10v-11l1-3-1-1c2-2 1-2 2 0l1 1v2l1 1 1 1v2l1 3v1l-2 1-1-2v-3h-1c2-2 2-2 2 0v5l-1 2c-2 3-2 1-2 0v-7l2-1v7l-2 2 1-2v-5c0-2 0-2 2-3v1l1 3v2c1 1 1 0-1 1v-1l-1-3v-2l-1-1-1-1v-2l-1-1c-1-2 0-1 2-2v15l-2 1zm-55-17l2 1a10 10 0 0 0 4 0h1l-2 1 1-1 1-1 1-2 2-1-1 2-1 1-1 1-3 1h-4l-2-1 2-1zm-2 7l1-1 4-2 2-1h2l2-1h2l1 1h1v1l-1 1h-1v-1h-1l-1-1h-2a39 39 0 0 1-4 1l-2 1-1 1 1-1-1 1-2 1z" transform="matrix(1.42583 0 0 1 -919 -600)"/>
    <path d="M1482 1337v4l1 1v1l-2 1v-1l-1-1c-1-1-2 0 1-2v1l-2 2-4 2h-3l-2 1h-1v-1l-1-1v-1l2-1v4h-2 1l2-2-2 2 1-1-2 2v-4l2-1v2h4l2-1h2c1 0 3-1-1 1l2-2v-1c2-1 2-2 3 0v1l1 1-2 1v-6l1-1z" transform="matrix(1.42583 0 0 1 -919 -600)"/>
    <path d="M1470 1342l-1 1v1l-3 1-2 1-1-1h-5l-2-1-1-1v-2l-1-2v-2l1-1-1 1c0-1 1-2 2-1v4l1 2 1 1 2 1h7c1 0 3-1 0 1v-1s0 1 0 0l1-1 2-1z" transform="matrix(1.42583 0 0 1 -919 -600)"/>
    <path d="M1452 1348l3-2-1 1 2-1 1-1h3l4-1h4l2 1 1 1 1 1c1 1-1 2-2 1h-2l-1-1-2-1-2-1h-3l-3 1h-2v1l2-1c-4-1-2 1-2 1l1-2-1 1 2-1h2l3-1h2l3 1 2 1 1 1h2l-2 1s1 0 0 0v-1l-2-1-2-1h-4l-4 1-2 1h-2a327 327 0 0 1 1-1l-1 1-2 1z" transform="matrix(1.42583 0 0 1 -919 -600)"/>
    <path d="M1454 1349l-1-3-1-1h-1l-2-1-2-1h-2c4-2 1-1 0 0v-1l2-1v1l-2 1 2-2 2 1 2 1 2 1 1 1 2 3-2 1zm-1-11h-8l-1-1-1-1-1-2-1-1-2-2 2-1-2 1 2-1 1 2 1 1 1 2 1 1 2 1h3a32 32 0 0 0 5 0l-2 1z" transform="matrix(1.42583 0 0 1 -919 -600)"/>
    <path d="M1436 1333l3 1h4l3 1 2 3 1 3v2l2 1h4v-1l-1 1-3-1-2-4 2-2 1 1 1 4 1 1 1 1c-2 1-1 2-2 1a42 42 0 0 0-3-4l2-1 3 1h2l-2 1-1-1-1-1-2-1 1-1 2 1 2 1s1 0 0 0l-1 2h-1l-4-1h2l3 3c1 1 0 0-1 1h-1l-1-1-1-1-1-4-1-1 2-1v1l2 4 2 1 1 1-4 1h-3l-2-1v-2l-1-3-1-2-3-2h-4l-4-1 2-1zm-17-12l2 1 2 2 2 1h1l-2 2v-1l-3-1h-3v-2a5 5 0 0 1-1 0v-4l2-1v5h2l1 1 2 1 1 1 1 2c1 1 0 0-1 1v-2l2-1h-1 1v-2l2-1v2l-1 1-3 1 2-1c-1 0 0 0 0 0v2l-2 1-1-2-1-1-2-1a13 13 0 0 1-3-1l-1-2v-3l2-1v4l1 1 1 1h1l3 1 1 1-2 1-1-1-2-1-2-2-2-1 2-1z" transform="matrix(1.42583 0 0 1 -919 -600)"/>
    <path d="M1437 1329h-5l-2-1h-2l-2-1v-1c-1-1 0 0 1-1l2 1 2 2 1 1 1 3 1 1 1 2 1 1-1 1v-1l1-1 3-2 2 1h1l-3 1-4-3-2-3c-1-1-1 0 1-1l3 4 2 4 2 1h1l-2 1v-1l-1-2-1-4-1-2 3-1 3 2 2 3-1 2-1-1-2-3-3-2 1-1v2l2 4v2l1 1-2 1-3-1-2-4-3-4c3-2 2-2 3-1l2 3 3 3h2l-2 1h-3l1-1-1 2-2 1-2-1-1-2-2-4-3-3-1-1 1-1 1 1 2 1h1l3 1h5l-2 1zm50 8l1 1 1 2h2v-1h1c-1 1-4 2 0 0l6-2 3-2 1-1c2 0-2 2-1 1l2-1-2 2h-2l-3 2-5 2-2 1h-1l-2-2-1-1 2-1zm18-3l3 2 3 2a44 44 0 0 0 5 1l3-1a37 37 0 0 0 4-2l-1 1 3-3 1-1 2-2 2-2s2-2 3-1v1h1l4-1 3-1c1 0 4-2 1 0l1-1 1-4v-4c1-1 2-2 3-1l2 1h2l1-1c-1 0-2 1 0 0l4-2 2-2 1-2 1-2c0-1 1-2 3-2h2l2-1h3c1 0 4-2 1 0v-1c2 0 2-2 3-3l2-7 2-4v-1l2-1-1 1-1 4-3 7-1 3h-1l-5 3-3 1h-4l1-1-1 1v2l-1 2-2 2-4 2-4 3h-3l-2-1 2-1h-1v4l-1 4-1 1-4 2-4 1-3 1h-2v-1l1-1c1 0 0 0 0 0a30 30 0 0 0-2 2l-2 2-2 2-2 2-6 3-4 1h-1l-2-1h-2a12 12 0 0 1-6-4l2-1z" transform="matrix(1.42583 0 0 1 -919 -600)"/>
    <path d="M1444 1348l1-2 3-2 3 1 2 2 2 1 2 1v2h1l-2 1 2-2 1-2 2-2 4-2 2 2 1 1 2 1h1l1 2-2 1 1-1 2-2 2-4 4-2h6l2 1 1 1 1 1v1l-2 1 1-1 4-2h1l4-2h3l2-1h1l2 1 2 1-2 1v-1a70 70 0 0 0 4-4l2-1 1-1-1 1 3-2h3a145 145 0 0 1 5 0h2l1-1h2l-1 1v-1l3-4 4-3h5l1 1h2l2 1c2-1-2 2-1 0h1l1-2a9 9 0 0 0 3-3l2-6 1-2c2-2 1-1 2 0h1l1 2h1l-1 1 3-2c-4 2-2 2-1 1v-1l1-4 2-3 6-3 3-1h3l-2 1h-2l-4 1-1 1 1-1-1 1h-1v1l-2 2-1 4-3 3 1-1-3 1h-1l-1-2h-1c-1-1 0 0 2-1l-1 2-2 5-1 2-2 1-2 2c0 1-1 2-3 2l-2-1h-2l-1-1h-4c-1 1-2 1 0 0l-1 1-3 4c-1 2-1 2-3 2l-2 1h-9l-2 1h-1l2-1-3 2 1-1-1 1-3 4s-1 2-2 1h-2l-2-1a32 32 0 0 0-3 0l-3 1a37 37 0 0 0-6 2l1-1v1l-3 1v-1l-1-1-1-1-2-1h-2l-4 1h-1c3-2 1-1 1 0l-3 3-1 2c0 1-2 3-3 2v-1l-2-1-1-1-2-1-1-1h-2s-2 0 1-1l-2 2-2 2-1 2-2 1-1-2-1-1-3-1-2-2-2-1h-1v1c2-2 1-1 0-1v2l-2 1z" transform="matrix(1.42583 0 0 1 -919 -600)"/>
    <path d="M1485 1337l4 2 4 1h2l2 1h1l2-1 4-1 3-1 2-1h1l-4 2h-9l-2 1h-1c0-3 5-3 7-4h7l-5 3h-1l-3 1-4 1-2 1h-1c3-3 2-3 4-3h3c1 1-3 2-4 3l3-2-1 1-4 2h-1l-3 2h-1l3-1-6 3h-1v-1l-1-3-1-2c1-2 4-3 6-2l1 1 3 3 2 1-4 2h1v-2l2-3 7-2 4-1 4 2 2 1c1 2-2 2-3 3h-2l-3-1-2-1 2-1 5-3v-1h1l-3 2 4-2v-1l-3 2c0 1 0 0 0 0h-7l-3 1c4-2 6-3-1 0v1l3-2-5 2-2 1h-1s-1 0 0 0c3-3 2-3 4-3h6l5-1h2v1l-5 3-8 3 3-1h-1l-1 1-1 2-5 2-1 1h-8l-1-1h-2l-1 1-2 1h-4l-1-1h1l5-3 3-2h4l1 2-4 3h-3l-1-1 2-2 6-3 5 1h3l1 1c1 2-3 2-5 3h-4c-3 0 2-3 3-2h1l2 1 2 1v2c-6 4-4 2-3 1l1-2 1-1 1-3 1-2 5-3-4 2 7-2h4l2 1 2 2-4 3v-1l-1-1-3-2h-5l3-2-4 3c-2 0 2-2 3-2h-1l-1 2-1 3-1 2-1 1c-1 2-1 2-5 3v-1l-2-2-2-1c-3-1 2-3 4-3h5c-1 1-5 1-3 2h-1l-4-1h-4c-2 0-5 2 1-1l-2 1v1l2-1h1l-3 2v-1h-4l-3 1 2-1h-1 5l2-1h7l1 1 2-1h3l-4 2 1-1 1-1 2-2 5-3 7-3-2 1v1h-6l-4 1h-3c-2 0-1 0 3-3h4l1-1c-8 5-2 1 0 0h1s0-1 0 0c-4 2-6 3 1-1l2-1h3l3 1h2c-1 2-9 6-1 1l-4 3-2 1s-1 0 0 0l3-2-2 1 1 1h5c-8 6-4 1-3 3l-2-2-5-1h-4l2-1-3 2v3c-4 2-3 3-5 2l-2-2-3-3h-2c3-3 5-2 3-3l1 2v3h1c0 1 6-3-1 1l6-3 3-1-3 1h1c2-2-6 3 4-3l-3 2v1h-3c-2 0 0 0 3-3h3l4-2h3c2-1 5-2-1 1l-2 1h-7v1c3-3 4-2 3-3h3l4-1h4l2 1-4 2-2 1h-2l-2 1-4 2h-8l-4-2-4-1 4-3z" transform="matrix(1.42583 0 0 1 -919 -600)"/>
    <path d="M1511 1335a71 71 0 0 0 9 1h4l3-1-2 1h1l1-2a30 30 0 0 0 4-5l1-1c4-4 3-3 5-3l2 1 2 1h2l3-1c2 0 1 0-3 2h1l1-1 1-1 1-2v-1c0-1 0 0 0 0l4-2-1 1-1 2c-4 2-5 3-5 0l1-2c1-2-2-1 4-3v2c0 2 0 1-4 3a14 14 0 0 1 2-5c2-1 4-3 6-2h1l3-1-2 1h1l1-1 1-1-1 1h-3c1-2 4-3 6-4-9 5 0 0 1-1l-3 3 3-2v1l-5 2 2-1 3-1v1l-1 1-7 4-3 1-1-1c-2 0-5 3 2-2l-1 2-1 3c-5 2-4 3-4 1v-2l4-2v1l-1 2v1c0 2-2 2-4 3l2-3c1-2 1-1 5-3v2l-1 2-1 2-2 1-4 2h-8l-2-1 3-2-1 1-1 2-3 4a21 21 0 0 1-15 6h-4l-5-1 4-3zm47 0a67 67 0 0 0 0-9l-1-2c-1-2 2-3 4-3l1 1a11 11 0 0 1 2 2l-4 2a12 12 0 0 0-1-2h-2l4-3a22 22 0 0 1 1 2v2a62 62 0 0 0 0 8l-4 2zm-15 4l2 5 2 2 2 1 3-1 1-1h1l-3 1a20 20 0 0 0 6-6v-2 1l4-2h-1l-1 1a215 215 0 0 1-6 6l-2 2-5 3h-2v-2l-1-2-2-3 4-3v1l1 2 1 3 1 1h2l-4 2 3-2 3-3 2-2 1-1 6-4v2a23 23 0 0 1-6 7l-7 3-3 2-2-1-2-3-2-5 4-2zm-10 10l1 1 1 1-3 2h-2l-1-2 4-2zm-120-24h2l-2 1 1-1c1-2-1-1 4-3v9c0 2-2 4-5 4l-1-3v-4l3-3 1 1v4l1 2-4 2 1-1v-8l4-2-1 1c-1 2-3 2-5 3l-2 1 3-3zm9 16l2-2 2-1v-2l5-3h1l-1 4-2 3-7 3-3 1 4-2v-1a10 10 0 0 0 4-1c1 0 6-3-1 1l5-3h1l-3 1 3-3 5-2h1l-1 1-4 6-2 3-2 2v1c-3 1-5 4-4 1l1-2 1-3 4-3 1-2c7-3 3-1 2 0l-2 3-4 1 2-2 6-3-1 1-3 3-2 3-1 2-4 3v-1l1-2h1l2-3 4-6 1-1 2-1-3 2c-1 2-3 3-5 3l-1 1 3-2-7 4-3 1h-2l4-3h1l2-1c2 0 5-2-1 1 2 0 3-1 3-2l1-3 2-1v1l-1 2-2 1-5 2zm33 3l2 1 2 1h3l1 2-1 3c0 2 2 1-4 2l-1-1-2-3-1-2-2-1h-1l-2-1h-2l-1-1-2-2h-1l-2-2-1-3v-1h-3l4-3h2l1 1v1l1 2 2 2 1 1 2 2h3l1 1 2 1 2 1 1 1 2 3 1 2-4 3v-1l1-3-1-1-2-1-2-1-2-1 3-2zm119-64l2 2 1 1 1 1c1 1 0 1-4 2l-1-2-1-1-1-2v-2c4-2 3-3 4-2l2 2 1 2-4 2-1-2-1-1c-1-2-3 1 3-3v2l1 1 1 2 1 2c-4 3-3 4-4 3l-1-1-1-2-2-1 4-3z" transform="matrix(1.42583 0 0 1 -919 -600)"/>
  </g>
  <g stroke="#000">

  
    
   
  
   
   
    <path d="M1482 1337v4l1 1v1l-2 1v-1l-1-1c-1-1-2 0 1-2v1l-2 2-4 2h-3l-2 1h-1v-1l-1-1v-1l2-1v4h-2 1l2-2-2 2 1-1-2 2v-4l2-1v2h4l2-1h2c1 0 3-1-1 1l2-2v-1c2-1 2-2 3 0v1l1 1-2 1v-6l1-1z" transform="matrix(1.42583 0 0 1 -624 -227)"/>
    
    <path d="M1452 1348l3-2-1 1 2-1 1-1h3l4-1h4l2 1 1 1 1 1c1 1-1 2-2 1h-2l-1-1-2-1-2-1h-3l-3 1h-2v1l2-1c-4-1-2 1-2 1l1-2-1 1 2-1h2l3-1h2l3 1 2 1 1 1h2l-2 1s1 0 0 0v-1l-2-1-2-1h-4l-4 1-2 1h-2a327 327 0 0 1 1-1l-1 1-2 1z" transform="matrix(1.42583 0 0 1 -624 -227)"/>
    <path d="M1454 1349l-1-3-1-1h-1l-2-1-2-1h-2c4-2 1-1 0 0v-1l2-1v1l-2 1 2-2 2 1 2 1 2 1 1 1 2 3-2 1zm-1-11h-8l-1-1-1-1-1-2-1-1-2-2 2-1-2 1 2-1 1 2 1 1 1 2 1 1 2 1h3a32 32 0 0 0 5 0l-2 1z" transform="matrix(1.42583 0 0 1 -624 -227)"/>
  
   
 
  </g>
  
 
  <path fill="#fff" d="M1028 1117c7 4 14 7 23 8l26 1c12 0 24 0 35-3 16-7-6 2-28 10l3-2 9-7 38-10c-12 12-32 20-55 25a192 192 0 0 1-62 1c-10-2-17-5-25-9l36-14z"/>
  <path d="M458 1161l-17 14-39 16 17-14 39-16zm1659 90c21 30 29 20 48 30l13 8c7 3 14 4 21 5l-34-31c-6-1-13-2-19-5-16-9-57-32 10 11l-39-18zm-934-667l2 12-4 23c-2 8-6 21 2-14l1 2 1 1c4 2 13-1 23-3l20-5-5 22-20 5c-12 3-23 6-29 4-13-3-3-15-1-24l1-5-3 18c1-4-1-7-1-11l13-25z"/>
 
  
  <path fill="#ff2a2a" stroke="#000" d="M1101 693l10 4 4 3c2-1 3 0 5 1l5 1 9 1a341 341 0 0 1 29-2h20l3-1h43l4-1 3-1h31c4 1 8 0 12-1l6-2 5-2 4-1 1-1c-19 11-27 16-20 11l14-11 9-7 3-2 22-11-2 4-10 7-13 11c-9 6-17 12-27 15l-5 2-7 2h-27l-16 1-7 1h-33l-10 1-7 1h-26l-18 1-10-1-6-1-4-2-5-2-9-5 20-13z"/>
  <path fill="#ff2a2a" stroke="#000" d="M1085 712l10 7 10 5 6 4 5 4 4 5 3 3 2 5c1 2 3 4 3 7l4 7 5 5 7 4 12 2 9 1h12a304 304 0 0 1 12 0l16-1 14-2 11-3 5-2 5-2h2l-20 11 2-1 3-2c3-4 7-6 11-9 10-6 20-13 32-17l11-4 8-3c11-6-26 18-18 9 6-5 17-9 23-13l2-1 5-2h3l2-1 14-3 8-3c11-5-30 17-16 9l23-13 2-1c-51 22-26 16-20 11l7-15 2-3 22-10-2 3-6 15-1 1-21 13-2 1 19-11c-9 5-17 11-27 15l-8 3-13 3-2 1h-4l-4 3h-2l-1 1c33-19 28-15 20-12l-1 1-23 14-8 3-12 4-5 2-2 2 18-11-12 9c-8 7-18 14-29 16l-4 2-5 2-12 2c-4 2-9 2-13 2l-17 1a240 240 0 0 0-12 0h-12l-9-1-12-2-8-5c-2-2-4-3-5-6l-4-8-3-6-2-4-3-4-4-4-4-3-7-5-10-5-10-6 21-14z"/>
  <path fill="#c83737" stroke="#f0f" d="M1126 781c-9-3-14-8-19-21-5-11-12-17-26-26l-13-8 8-7 9-5 13 7c16 10 22 16 29 30 6 14 9 16 23 19a379 379 0 0 0 73 0c-2 0-2 1-2 2l9-3c10-6 14-6 5-1-8 6-22 11-36 13-17 3-63 3-73 0zm-23-66l-18-9c0-1 3-4 8-7l8-5 6 3c14 7 17 7 56 5 68-3 115-3 111-1-3 2-3 2 0 3s1 2-6 4a44989 44989 0 0 0-166 7zm221 3l1-4c0-2 10-7 16-9 4-1 4-1 1 5-2 4-3 7-4 6l-7 2c-8 3-8 3-7 0z"/>
</svg>